#!OML:ASF F:\VICON\USERDATA\INSTALL\rory3\rory3.ASF
:FULLY-SPECIFIED
:DEGREES
1
root 12.9317 17.9389 13.9322 -166.698 -38.1281 177.385
lowerback -7.03457 -1.29206 -1.27108
upperback -2.68725 -1.74979 -0.207685
thorax 1.2013 -0.920177 0.359519
lowerneck -16.5651 -0.460249 0.191935
upperneck 23.7022 -1.5014 0.935445
head 10.3241 -0.771474 0.055942
rclavicle 3.99557e-014 1.3418e-014
rhumerus -32.5841 13.5243 -95.5135
rradius 25.1452
rwrist 7.72269
rhand -23.3351 10.9153
rfingers 7.12502
rthumb 3.11945 -19.0416
lclavicle 3.99557e-014 1.3418e-014
lhumerus -36.6828 -11.9888 88.6135
lradius 33.8184
lwrist 7.91852
lhand -13.0384 26.8706
lfingers 7.12502
lthumb 13.0562 56.442
rfemur -19.2916 -3.16138 19.905
rtibia 30.7996
rfoot -22.702 6.21446
rtoes 2.87055
lfemur -30.6782 8.43222 -18.7468
ltibia 48.5291
lfoot -14.7751 -4.80387
ltoes -17.4895
2
root 12.9366 17.9421 13.8991 -166.715 -38.107 177.388
lowerback -6.99614 -1.25403 -1.21058
upperback -2.58524 -1.69653 -0.240815
thorax 1.28159 -0.892145 0.295254
lowerneck -16.1559 -0.54635 0.47328
upperneck 23.0628 -1.57297 0.62232
head 10.0107 -0.809972 -0.104712
rclavicle 3.03519e-014 2.78299e-015
rhumerus -32.3788 13.2441 -95.3783
rradius 24.9714
rwrist 7.99382
rhand -23.2809 11.1604
rfingers 7.12502
rthumb 3.17178 -18.7957
lclavicle 3.03519e-014 2.78299e-015
lhumerus -36.6399 -11.9878 88.4697
lradius 33.9207
lwrist 8.1815
lhand -13.2832 27.1304
lfingers 7.12502
lthumb 12.8202 56.7167
rfemur -19.1468 -3.5637 20.0136
rtibia 30.6836
rfoot -22.6421 6.57328
rtoes 2.90352
lfemur -31.5063 8.49426 -18.7686
ltibia 49.9589
lfoot -13.6228 -4.5791
ltoes -14.894
3
root 12.942 17.943 13.8669 -166.676 -38.0069 177.443
lowerback -7.09033 -1.21092 -1.15247
upperback -2.45916 -1.63483 -0.241197
thorax 1.46123 -0.86021 0.263086
lowerneck -16.6613 -0.456845 0.188541
upperneck 23.5 -1.55349 1.23717
head 10.2727 -0.752865 0.157564
rclavicle 4.9075e-016 7.25564e-015
rhumerus -32.1349 13.1397 -95.2672
rradius 24.9
rwrist 8.02176
rhand -23.1918 11.3176
rfingers 7.12502
rthumb 3.25786 -18.6373
lclavicle 4.9075e-016 7.25564e-015
lhumerus -36.5096 -11.8176 88.2762
lradius 33.9546
lwrist 8.20311
lhand -13.4263 27.1857
lfingers 7.12502
lthumb 12.6822 56.7806
rfemur -19.1063 -3.7129 20.1409
rtibia 30.5543
rfoot -22.5739 6.82028
rtoes 3.26286
lfemur -32.4334 8.6426 -18.78
ltibia 51.394
lfoot -12.8041 -4.23077
ltoes -14.2999
4
root 12.9456 17.9402 13.8361 -166.572 -37.9105 177.397
lowerback -7.07598 -1.18909 -1.14423
upperback -2.389 -1.60193 -0.269529
thorax 1.52409 -0.842843 0.231386
lowerneck -16.7427 -0.447871 0.257037
upperneck 23.4381 -1.55149 1.23786
head 10.2654 -0.742432 0.146874
rclavicle -5.02987e-014 1.25234e-014
rhumerus -31.9454 13.0635 -95.2211
rradius 24.8584
rwrist 8.01573
rhand -23.2019 11.2485
rfingers 7.12502
rthumb 3.2481 -18.7065
lclavicle -5.02987e-014 1.25234e-014
lhumerus -36.4716 -11.7064 88.1108
lradius 33.9727
lwrist 8.26607
lhand -13.547 27.2167
lfingers 7.12502
lthumb 12.5658 56.8188
rfemur -19.0923 -3.77703 20.1986
rtibia 30.44
rfoot -22.5425 6.75157
rtoes 2.67316
lfemur -33.378 8.82641 -18.9436
ltibia 52.758
lfoot -12.3348 -3.65834
ltoes -14.5462
5
root 12.9466 17.9358 13.8023 -166.542 -37.8569 177.419
lowerback -7.00511 -1.1749 -1.10827
upperback -2.36762 -1.58469 -0.251824
thorax 1.50616 -0.833393 0.232245
lowerneck -16.3716 -0.523653 0.535571
upperneck 22.8844 -1.56865 0.754942
head 9.98874 -0.778165 -0.0670538
rclavicle 5.42247e-014 -7.15625e-015
rhumerus -31.9244 12.9106 -95.1146
rradius 24.8513
rwrist 8.09795
rhand -23.2232 11.2003
rfingers 7.12502
rthumb 3.22757 -18.755
lclavicle 5.42247e-014 -7.15625e-015
lhumerus -36.5737 -11.6403 88.0293
lradius 34.0158
lwrist 8.32051
lhand -13.6375 27.1405
lfingers 7.12502
lthumb 12.4786 56.748
rfemur -19.0697 -3.92765 20.3332
rtibia 30.3658
rfoot -22.4924 6.62755
rtoes 1.70173
lfemur -34.2537 9.04353 -19.0985
ltibia 54.0164
lfoot -12.1458 -2.96915
ltoes -14.8416
6
root 12.9465 17.9349 13.765 -166.49 -37.7543 177.44
lowerback -6.98843 -1.1436 -1.10961
upperback -2.34579 -1.54219 -0.214709
thorax 1.51992 -0.811555 0.274722
lowerneck -16.4635 -0.513525 0.435156
upperneck 22.9654 -1.5532 0.841256
head 10.0367 -0.769384 -0.0187655
rclavicle 5.10814e-014 5.96354e-015
rhumerus -31.9652 12.9244 -95.0134
rradius 24.9329
rwrist 8.0033
rhand -23.2044 11.1782
rfingers 7.12502
rthumb 3.24568 -18.7768
lclavicle 5.10814e-014 5.96354e-015
lhumerus -36.6241 -11.439 87.9234
lradius 34.0251
lwrist 8.17884
lhand -13.6311 27.2303
lfingers 7.12502
lthumb 12.4848 56.8374
rfemur -19.0269 -3.99917 20.4106
rtibia 30.3229
rfoot -22.5008 6.89303
rtoes 1.96635
lfemur -35.0869 9.30412 -19.2716
ltibia 55.1383
lfoot -12.1693 -2.483
ltoes -15.5856
7
root 12.9457 17.9345 13.7267 -166.43 -37.5611 177.352
lowerback -6.96277 -1.10513 -1.19037
upperback -2.27161 -1.48133 -0.230245
thorax 1.58279 -0.780074 0.308601
lowerneck -16.5222 -0.501368 0.343208
upperneck 22.9708 -1.54086 0.963048
head 10.0516 -0.756306 0.0409194
rclavicle 1.40392e-015 1.43125e-014
rhumerus -31.8964 13.1892 -95.0732
rradius 25.0215
rwrist 7.72482
rhand -23.1767 11.268
rfingers 7.12502
rthumb 3.27244 -18.6866
lclavicle 1.40392e-015 1.43125e-014
lhumerus -36.6814 -11.393 87.8381
lradius 34.0948
lwrist 8.2287
lhand -13.817 27.3848
lfingers 7.12502
lthumb 12.3056 57.0027
rfemur -18.8686 -3.85244 20.3253
rtibia 30.3053
rfoot -22.4813 7.28317
rtoes 3.6201
lfemur -35.8167 9.63866 -19.5612
ltibia 56.1053
lfoot -12.2821 -2.1992
ltoes -16.9492
8
root 12.9414 17.9342 13.6898 -166.278 -37.4192 177.164
lowerback -6.93657 -1.07845 -1.29366
upperback -2.24163 -1.43682 -0.286609
thorax 1.59942 -0.757642 0.312408
lowerneck -16.6611 -0.443001 0.281256
upperneck 23.1473 -1.48587 1.08831
head 10.1428 -0.722484 0.101229
rclavicle 1.20662e-013 1.15295e-014
rhumerus -31.7646 13.2394 -95.1193
rradius 25.0129
rwrist 7.62299
rhand -23.2305 11.2834
rfingers 7.12502
rthumb 3.22051 -18.6721
lclavicle 1.20662e-013 1.15295e-014
lhumerus -36.7651 -11.3261 87.7519
lradius 34.0805
lwrist 8.18975
lhand -14.0384 27.4319
lfingers 7.12502
lthumb 12.0921 57.0625
rfemur -18.7598 -3.89615 20.1901
rtibia 30.2794
rfoot -22.4869 7.45822
rtoes 4.06921
lfemur -36.5388 9.78254 -19.925
ltibia 56.9426
lfoot -12.4806 -2.03206
ltoes -17.3433
